<svg xmlns="http://www.w3.org/2000/svg" viewBox="0 0 281.02 217.97"><defs><style>.cls-1{isolation:isolate;}.cls-2{mix-blend-mode:color-burn;}.cls-3{fill:#68593a;}</style></defs><title>imgRisorsa 2wedding</title><g class="cls-1"><g id="Livello_2" data-name="Livello 2"><g id="Design"><g class="cls-2"><path class="cls-3" d="M153.14,1.51c0,.76-.38,1.14-.76.76C151,.76,145.07,5,143.56,8.69c-1.39,3.15-1.26,3.66.25,3a2.7,2.7,0,0,0,1.77-2.27,2.83,2.83,0,0,1,1-2.39c1.52-.89,17.14,3,19.28,5A6.26,6.26,0,0,0,169,13.86c2,0,4.54,8.44,4.16,14.24-.25,2.89.25,6.42,1.13,7.81,1.14,2.14,1.39.88,1.51-6.55,0-5-.63-10.71-1.51-12.6C171.91,11.34,166.87,5,165,5c-1,0-1.77-.5-1.77-1,0-1.26-5.66-4-8.18-4A1.72,1.72,0,0,0,153.14,1.51Z"/><path class="cls-3" d="M196.91,15.06c.06.62-1.28,1,.11,1.36,2.65.88,3.62.59,1.47,1.85-2.89,1.76-1.26,3.91,2.52,3.4,4.67-.63,4.92,1.26.51,3.53-2.77,1.51-3.4,1.51-4.29,0s-1.26-1.51-1.26.25a3,3,0,0,0,2.27,2.65c2,.5,2,.63-.12.75a3.27,3.27,0,0,1-3-2.14,8,8,0,0,0-2.14-3c-.76-.51-.38-1.77,1.13-3.4,3.41-3.91,1.52-4.54-2.77-.89a9.42,9.42,0,0,0-3.78,7.31l-.12,4.16,1.38-3.53c1.64-3.9,4-4.66,3-.76-.51,1.89.12,2.9,2.26,3.91,1.77.76,2.78,1.76,2.52,2.27s1.26,1.76,3.53,2.64a16.43,16.43,0,0,1,5.55,3.66c1.13,1.38,1.51,1.38,1.63.25,0-.88,1.77-2.27,3.78-3,3.66-1.26,3.78-1.39,1.64-3.15-1.26-1-1.51-1.39-.5-.89,2.14,1,.63-4.15-1.89-6.8a5,5,0,0,1-1.77-2.77c0-1.39,7.18-4.16,9.07-3.4.89.25.13,1-1.76,1.51-4.16,1.13-4.53,3-1,6.05,1.39,1.13,2.52,1.63,2.52.88a2.71,2.71,0,0,0-1.26-1.89c-2.27-1.39,1.26-4.54,4.16-3.65,3.53,1.13,1.51-1.64-3.28-4.67l-4-2.39-2.52,3.15c-2.14,2.65-3.15,3-6.17,2.14l-3.78-1,3-2.14c1.77-1.13,3.78-2.14,4.67-2.14s1.63-.5,1.63-1,2.65-.5,5.8.38c4.16,1,7.05,2.9,10.71,7.06,2.64,3,4.66,6.29,4.28,7.05a1.22,1.22,0,0,0,1.26,1.64c1,0,1.89.63,1.89,1.38a.7.7,0,0,0,1.14.63c.63-.37,1.51.13,1.89,1.26s.25,1.52-.51,1.14-1.26.12-1.26,1.13a3.83,3.83,0,0,0,1.64,2.9,4.53,4.53,0,0,1,1.64,3.15c.12,1.26-.13,2-.63,1.76s-1,1.39-1,3.78a8.5,8.5,0,0,1-3.15,6.68l-2.9,2.4-2.52-3.91a25.16,25.16,0,0,1-2.77-5.8,5.78,5.78,0,0,0-2.39-3.52,7,7,0,0,1-2.4-4.41,29.62,29.62,0,0,0-1.38-5.3c-.89-2.26-.51-2.26,3.4.51,3.27,2.39,3.9,2.52,2.39.63-1.76-2.14-1.64-2.27.25-1.64,2.65,1,3.78-1.64,1.77-4.16-1.39-2.14-7.06-4.41-7.06-3a12.82,12.82,0,0,0,1.39,3.27c1.13,2.15.88,2.52-1,2.15s-2.27.5-2.39,3.4c-.13,4.66,2.64,12,4.53,12,.76,0,1,.63.63,1.26s.13,1.64,1.14,2c3.15,1.26,2.26,2.78-1.14,2-1.76-.25-3.15,0-3.15.5.13,2.4,3.53,5.55,6.18,5.55,1.38,0,2.64.5,2.64,1.26,0,2-6.68,7.43-10.08,8.19-2.52.63-3.15,1.51-3.4,5-.13,2.39.38,4.41,1,4.41s1.13.75,1.13,1.51,2.65,3.27,5.8,5.29l5.67,3.53,3.65-3.4c4.41-4.16,6.81-12.6,4.66-16.26-1.38-2.64-1.51-2.64-1.89.26-.25,1.51-1,2.52-1.63,2.14s-1.14,0-1.14.88c0,1.26-.25,1.26-1.13-.13s-1.77-.63-3.78,3.15c-2.52,4.41-2.77,4.54-2.27,1.39l.5-3.53-2.39,2.65c-1.39,1.51-3.15,2.39-3.91,2.14-2.89-.88-1.38-3.91,3.15-6.43,2.65-1.51,5.67-3.9,6.68-5.54s2.9-2.77,3.78-2.77,2.77-1.51,4-3.53a25.91,25.91,0,0,1,3-4c.88-.63,1.38-6.18,1.51-15.25,0-4.91-.88-7-5.92-14.23-6.55-9.08-8.57-10.59-17.14-13-5.79-1.51-13.23-.25-15.37,2.77-.5.76-1.72,1.84-3.23.08C199.59,13.26,196.79,13.93,196.91,15.06ZM209.08,27a10.62,10.62,0,0,1,0,4.92c-.88,2.39-6.81,3.52-9.33,1.89-1.51-.89-1.26-1,.89-.63,2.39.5,2.64.25,1.63-1.64-2-3.66-1.51-5.29,1.26-4.41,1.89.63,2.27.38,1.77-1.14-.51-1.25-.13-2,1.13-2C207.44,23.94,208.7,25.32,209.08,27ZM233,74.21c.37.63-.13,1.51-1.26,1.89-2.52,1-3.66.13-2.4-1.64C230.37,72.83,232.13,72.7,233,74.21Z"/><path class="cls-3" d="M130.08,24.07c-1,2.64.12,4.28,1.13,5.92,2,3,9.45,3.52,11.47.75,2.52-3.53,1.89-5.29-.76-2.14s-4.32,4-3.53,2.39c0-1-3.65-1.63-4.66-1.26s-2-2.77-2.52-3.9-.25-1.64.51-1.26,1.26-.13,1.26-1.39c0-1.51.75-1.89,3.15-1.51,1.76.38,6.93,1.39,6.93.88s.75-1.13,1.76-1.13c2.65,0,3.78-2.27,2.14-4.28-.75-.89-.88-2.15-.38-2.65s.13-.63-.75-.13a1.7,1.7,0,0,0-.88,2.15c1,1.51-.26,1.38-3.41-.26-1.38-.75-2.77-1-3.15-.63s1.14,1.52,3.53,2.52L146.21,20l-4.79.13C131.36,17.78,131.21,20.79,130.08,24.07Z"/><path class="cls-3" d="M154.65,22.3A3.72,3.72,0,0,0,156.92,25c1.63.63,1.63.37.12-1.39-1.89-2.27-.25-3,1.89-.88.88.88,1.39.88,1.39-.38,0-.88-1.39-1.76-3-1.89C155,20.29,154.27,20.79,154.65,22.3Z"/><path class="cls-3" d="M155.66,27.72c-3.15,3.15-3.28,6.55-.26,9.2,2.78,2.52,6.68,2.77,8.82.63s1.77-7.94-.75-10.21C160.44,24.57,158.68,24.7,155.66,27.72Zm8.18,2.52c1,3-.2,7.56-3.9,7.56-3.93,0-6.17-5.92-4.28-8.19C158.24,25.71,162.84,27.21,163.84,30.24Z"/><path class="cls-3" d="M182.87,26.71c.63,1,.25,1.13-1.26.63-1.26-.5-1.89-.38-1.39.38,1.26,2,5.67,1.51,5.67-.63a2,2,0,0,0-2-1.89C182.74,25.2,182.37,25.83,182.87,26.71Z"/><path class="cls-3" d="M146.21,29c-.38.75.12.88,1.13.5,1.39-.5,2,0,2,1.39,0,1.13.63,1.64,1.26,1.26,1-.63.88-1.39-.13-2.65C148.85,27.47,147.34,27.21,146.21,29Z"/><path class="cls-3" d="M177.83,33.51c-1.26,3.28-.88,10.34.63,11.22,2,1.26,7.43-4.41,7.43-7.69C185.89,32.51,179.34,29.61,177.83,33.51Z"/><path class="cls-3" d="M127.05,37.67c-.12,2.52-.5,6.43-.88,8.82-.75,6.43,1.26,10.33,7.06,14.62,4.79,3.4,6.17,3.65,14.61,3.53s9.08,0,7.56,1.76-1.26,1.89,1.52,1c3.9-1.26,5.29-2.9,10.83-13.61,2.39-4.66,5.17-8.82,6.17-9.32s1.89-1.14,1.89-1.89-.63-.76-1.51-.26-1.13.26-.63-1.13a3.6,3.6,0,0,0-1.13-3.53c-1.64-1.26-2.4-1-4.79,1.89s-3.4,3.4-7.68,2.9l-5-.76,3.78,1.77c5.54,2.52,7.68,2.27,10.07-1.39,1.14-1.76,2.4-2.9,2.78-2.52s-1.26,4-3.78,8.19-4.67,8.19-4.67,9.2a5.21,5.21,0,0,1-1.51,3.28c-1.76,1.76-8.56,2-8.56.37,0-.5-2.65-.88-5.93-.63-7.56.63-13-1.38-13-4.78,0-2.15-.26-2.27-1.89-1s-1.77,1.26-1.14-.51c.51-1.38.25-2-.75-1.76a1.51,1.51,0,0,1-1.89-1.26c-.26-.88-.13-1,.25-.25a1.15,1.15,0,0,0,1.76.5c.63-.38.63-1.64-.25-3.15a14.77,14.77,0,0,1-.88-6.55c.38-4,.5-4,6.68-3.78s6.17.13,1.26-.76a32.05,32.05,0,0,1-7.56-2.26C127.56,33.14,127.31,33.39,127.05,37.67Z"/><path class="cls-3" d="M189.55,35.15c1.26.88,1.26,1.26.12,1.64s-1.13.88.26,2.27c1,1.13,1.63,3.9,1.51,6.68-.25,4.15.25,5,3.65,6.67,3.53,1.89,3.91,1.89,5.55-.25a9.51,9.51,0,0,0,1.63-4.41c0-1.26.51-2.64,1.26-3s.89.12.51,1.26c-.51,1.38-.25,1.76,1.13,1.13,1.14-.38,4.66.51,7.94,1.89,6.3,2.77,9.2,2.14,6.42-1.51C217.9,45.11,194.21,36.29,193,37.42c-.38.5-.76.13-.76-.63a2.44,2.44,0,0,1,1.64-1.89c.76-.38-.12-.76-2.27-.76C188.92,34.14,188.29,34.4,189.55,35.15Zm24.06,12c0,.38-1.63-.12-3.78-.88s-3.78-1.89-3.78-2.39,1.77-.26,3.78.88S213.61,46.87,213.61,47.12Z"/><path class="cls-3" d="M140.54,40.82c0,1-1.52,2.14-3.41,2.4s-.88.5,2.4.37,6.05-.63,6.05-1.26,1.38-.63,3.15-.25c2.52.63,3.15.38,3.15-1.38,0-1.26-.51-1.77-1-1-1.14,1.64-7.81,2.14-7.81.5a1.16,1.16,0,0,0-1.26-1.13C141.17,39.06,140.54,39.81,140.54,40.82Z"/><path class="cls-3" d="M222.43,39.56a7.57,7.57,0,0,0,1.89,2c1.51,1.26,1.89,1.26,1.89-.51a2,2,0,0,0-1.89-2C223.31,39.06,222.43,39.31,222.43,39.56Z"/><path class="cls-3" d="M149.36,46c3.15,3.4,3.15,3.4.37,2.64-1.76-.63-2.89-.37-2.89.38A1.28,1.28,0,0,0,148,50.4a12.36,12.36,0,0,1,3.4.88c1.64.63,1.89.38,1.14-.88s-.51-1.51,1-.88c3.78,1.38,2.15-.89-2.64-4l-4.66-2.89Z"/><path class="cls-3" d="M137.39,46.62a4.39,4.39,0,0,0,3.27,1.26c1.39,0,2.14-.63,1.77-1.26s-1.89-1.26-3.28-1.26S137,45.86,137.39,46.62Z"/><path class="cls-3" d="M139.91,50.4c.37.63,2,1.26,3.52,1.26,2.27,0,2.4-.25.89-1.26C141.8,48.76,138.9,48.76,139.91,50.4Z"/><path class="cls-3" d="M179.09,50.15c-.25.5,1.39,1,3.78,1.13s3.91-.38,3.53-1C185.52,48.89,180,48.76,179.09,50.15Z"/><path class="cls-3" d="M120,56.07c-3.15,2.77-4.66,3.15-13.48,3.15-5.42,0-11.34-.51-13.11-1.26S85.1,56.45,78.8,56.07c-11.22-.63-11.34-.63-15.62,3.15A36,36,0,0,0,56,69.05c-4.41,9.32-9.7,16-14.36,18.26s-8.69,8.45-7.94,12c.25,1.14-.75,2.78-2.14,3.41a6.74,6.74,0,0,0-3,3.78c-.26,1.26-2.4,4.91-4.67,8.06s-4.28,6.43-4.28,7.69-1.39,3.4-3.15,5-3.15,3.78-3.15,4.92-1.51,4-3.4,6.68c-3.28,4.78-3.28,5-1.26,9.19,1.13,2.27,5.79,8.19,10.33,13.11L27.39,170l-2.52,3.53C22.73,176.64,4.59,208,.81,215.07c-1.26,2.52-1.14,2.9,1,2.9,1.63,0,2.89-1.13,3.4-3a11.41,11.41,0,0,1,3.15-5.29c1.26-1.14,2.39-2.9,2.39-3.91a1.57,1.57,0,0,1,1.51-1.64c.76,0,1-.38.63-.75s.26-2.4,1.64-4.29,2.52-3.9,2.52-4.41a22.1,22.1,0,0,1,3.15-4.91c1.76-2.27,3.15-4.66,3.15-5.29s1.39-2.9,3-4.92l3-3.78,3,2.9c2.65,2.39,6,3.78,6,2.27a46.17,46.17,0,0,0-5-5.55c-5.17-5-6.55-8.31-3.15-7,1.76.76,3-1,3.65-5a5.11,5.11,0,0,1,1.14-2.77c.5-.51.75-2.65.75-4.79-.12-2.65-.37-3.15-.75-1.39a12.6,12.6,0,0,1-1.77,3.91c-.88,1.13-1.89,4.66-2.26,8.32-.26,2.14-4.79-.89-6.3-4.16-.89-2-2.4-3.66-3.41-3.66s-1.76-1.13-1.76-2.39c0-1.51-1.39-2.9-3.65-3.65A8.08,8.08,0,0,1,11,147.54c-1.13-3.4-1-4,1.14-5.17,1.64-1,3.15-.88,5,.13s2.39,1,1.89,0,.12-1.39,1.89-1.39c1.51,0,2.39-.37,1.89-1s-2.52-.89-4.29-.89c-2.14,0-3.53-.75-3.78-2.26-.63-3.15,3.53-4.29,5.55-1.52,1.51,2,1.76,2,1.76.38,0-2.14,3.4-4,4-2.27.25.63,1.89,1.52,3.78,1.89,3.78,1,3.78,1.89-.38-13.73-1.26-4.79-2.14-9.07-1.76-9.32s1.51.12,2.77,1.13c1.64,1.39,1.89,1.39,1.14.13-.51-.88-.63-3.78,0-6.3l.88-4.66,1,6.17c.88,5.8,2.52,8.32,5.54,8.32.76,0,.5-.51-.5-1.14-2.15-1.38-3.41-14.61-1.52-15.75,1.39-.88,2,1.26,3.28,10.71.76,6.18,3.53,11.22,5.17,9.58.63-.51.12-3.66-1-6.93s-2.4-7.81-2.9-10-1.39-4.41-2-4.78-1.13-2.27-1.13-4c0-2.64.5-3,2.77-2.52,2.77.76,9.83-2.14,9.83-4,0-.63,1.51-1.51,3.4-2,2.9-.63,4-.13,6.93,3.4,3.53,4.28,4.79,3.15,2-1.77s-4.92-5.79-9.07-4.66c-5.67,1.64-6.43,1.39-4-1.26a14.08,14.08,0,0,1,6.18-3.4c3.15-.63,3.53-1,1.76-2-2.77-1.51-2.77-4,0-6.17,1.14-1,1.77-1.13,1.26-.38s.51,1.39,2.9,1.26c3.15-.12,3.4-.37,1.89-1.51-2.39-1.76-2.39-5.16,0-7.56,1-1.13,1.89-1.51,1.89-.88s.63.13,1.26-.88c1.13-1.64,1.51-1.64,3.15.5,1.76,2.4,4.41,1.77,4.41-1.13,0-1,.88-1.39,2.52-1,1.38.38,2.52,1.13,2.52,1.64s.88,1.38,2,1.76c1.52.51,1.89.25,1.26-1.13-1-2.77,1.52-2.4,3.28.5.76,1.26,2.27,2.14,3.15,1.77,2.39-.89,2-2.9-.5-3-1.26,0-1.64-.38-.76-.63s2.77.13,4.41,1.14,3.78,1.76,4.91,1.51c1.52-.25,1.89.38,1.52,2-.38,1.26-1.14,2-1.77,1.64s-1.13-.12-1.13.63-.88.88-2.14.51-1.77-.38-1.14.75a2.57,2.57,0,0,0,2.9.88c1.26-.5,1.64-.25,1.26,1a1.77,1.77,0,0,0,.88,2.4c1.14.5,1.51-.26,1.14-2-.51-3.53,1.26-6.3,4.28-6.55a8.87,8.87,0,0,0,3.78-1c2.9-1.76,5.42.5,5.42,5.29a15.55,15.55,0,0,0,1.26,6.43c1,1.51,1.26,1.51,1.26-.63a13.49,13.49,0,0,1,2.64-6.3l2.52-3.78-.38,4.16c-.25,2.26.26,4.53,1,5,2,1.26,3.53,6.55,1.89,6.55-.75,0-1.38.88-1.38,2,0,1.77-.26,1.89-2,.38s-2-1.39-1.13,1.26-.63,10.46-2.9,16.51a6.38,6.38,0,0,0-.38,2.89c.13.63-1,5.17-2.39,10.21s-2.52,10.71-2.4,12.85c0,5.92,8.57-18.77,10.21-29.73.75-5.3,2.39-10.59,3.53-12,4.15-4.79,5.16-7.82,3.15-9.45-.89-.76-2.65-4.29-3.78-7.69-1.89-5.54-1.89-6.55-.26-10C125.67,52.16,124.66,51.91,120,56.07Zm-3,8.19c-1.26,2.14-2.39,3.27-2.64,2.64-.63-1.76,2.14-6.42,3.65-6.42C118.74,60.48,118.23,62.24,117,64.26ZM24.62,123c0,1,.5,1.64,1.13,1.26,1.52-1,3.53,1.64,4.16,5.17.51,3.27-.75,3.27-6.17,0-4.29-2.4-5.8-5.55-2.14-4.16,1.63.63,1.89.12,1.26-2.52-.63-2.14-.38-2.9.5-2.39A3.52,3.52,0,0,1,24.62,123Zm-.76,7.94c1.26,1.89-2.77,2.52-4.28.63-1.26-1.39-1.13-1.77,1-1.77C22.1,129.77,23.49,130.28,23.86,130.91Z"/><path class="cls-3" d="M177.7,56.82c-.63,1.77-.25,3.15.76,3.78,2.39,1.52,3.65,1.39,3.65-.12,0-.76.89-1.26,2.15-1.26,1.76,0,1.76-.25-.26-2.52C181.11,53.42,178.71,53.55,177.7,56.82Z"/><path class="cls-3" d="M73.51,70.56C73,73.71,72.37,79,72,82.53l-.63,6.3,1.89-6.93c.89-3.78,1.64-9.2,1.39-12l-.25-5Z"/><path class="cls-3" d="M106,67.53c-1.26,3.15-.88,4.29,1,3.53,2.52-1,3.4-3.9,1.39-4.79A2.08,2.08,0,0,0,106,67.53Z"/><path class="cls-3" d="M204.67,68.16c-4.41,3.41-15.37,4.41-22.18,2s-6.93-1.64-.25,1.64c4.54,2.14,6.3,2.27,13.48,1.26,6.18-.88,9.07-1.89,11.47-4.29C211,64.89,209.33,64.51,204.67,68.16Z"/><path class="cls-3" d="M155.91,70.81c-2.27,2.27-3,2.52-3.91,1.26s-1.51-.88-3.15,1.64c-1.26,1.76-2,3.78-1.76,4.41.75,2,8.69-2.78,10.58-6.55C159.94,67.28,159.56,67.16,155.91,70.81Z"/><path class="cls-3" d="M66.2,74.84a3.56,3.56,0,0,0,1.26,2.65c.75.37,1.26-.13,1.26-1.14a3.18,3.18,0,0,0-1.26-2.64C66.83,73.33,66.2,73.83,66.2,74.84Z"/><path class="cls-3" d="M85.6,77c-.5.88.38,2.52,2.14,3.78,3.66,2.9,4.92,3,4.92.51,0-1.14-.76-1.52-1.89-1.14s-1.89,0-1.89-1.13C88.88,76.35,86.74,75.09,85.6,77Z"/><path class="cls-3" d="M101.1,78.87c-1.26,1.64-1.76,3-1.26,3,1.13,0,4.54-5,3.91-5.67C103.49,76,102.36,77.23,101.1,78.87Z"/><path class="cls-3" d="M131,83.28c.5,3.15.25,5.8-.5,6.93-2.15,2.4-3,9.33-1.26,9.33.75,0,.5,1-.76,2.14-4.16,4.16-11.72,16.88-13.73,23.18-1.14,3.4-2.77,6.17-3.66,6.17s-2.14,1.89-3,4.16c-1.89,5.42-1.89,6.05.25,5.17,1-.38,1.51-1.64,1.14-3.15s0-2.4.75-2.4,1.14.63.63,1.52-.38,1,.63.5,1.26-1.26.88-1.64.38-2.27,1.77-4.16,2.14-3.78,1.76-4,.88-1.13,2.9-1.51c2.39-.63,2.9-1.26,1.76-2a1.77,1.77,0,0,1-.75-2.52c.63-1,1.63-.76,3.27,1.13,1.26,1.39,2.4,3.15,2.4,3.9a1.26,1.26,0,0,0,1.26,1.26c.63,0,.88.76.5,1.77a1.93,1.93,0,0,0,1.26,2.39c2.27.88,2.77-2.27.63-3.53a2.22,2.22,0,0,1-.63-2.64,2,2,0,0,0-1.13-2.52c-1-.5-1.89-1.39-1.89-2a4.65,4.65,0,0,0-1.89-2.77c-1.64-1.13-1.14-2.39,3.27-8.69,2.77-3.91,5.29-7.18,5.67-7.18.88,0-1.13,8.19-2.27,8.94a2,2,0,0,0-1.13,1.64,1.31,1.31,0,0,1,0,1c-.88,3.27-.76,6,.38,6.8.75.51,1,.38.63-.38s0-3,1-4.91a17.57,17.57,0,0,0,1.89-5.42c0-4.79,1.13.25,1.89,8.44.63,7.56.5,9.2-1.14,9.83-1.38.5-1.76,1.64-1.26,3.78s.25,3-.88,3-1,.63.63,1.89c2,1.52,2.14,2.15.76,3.91-1.14,1.26-3,1.76-5.3,1.51-1.89-.38-3.52-.12-3.52.51,0,1.51-4.29,1.26-6-.51-1.14-1.13-1.51-1-1.51.51a3.42,3.42,0,0,1-1.52,2.77c-.88.5.51.5,3.28.25s4.54-.38,4.16.13,2.14,2.14,5.67,3.9l6.3,3.15-.63,6.18c-.38,3.27-.25,6,.25,6s1.39,1.26,1.89,2.9,2.39,3.78,4.54,5c3.4,2,3.78,2.9,3.78,8.44,0,7.94-1.64,11.34-7.06,15-2.65,1.89-4.16,3.78-3.78,4.78s-.63,3.15-2.27,4.79-2.52,3.4-1.89,3.78,1.14,2.4,1.14,4.54c0,2.39.63,3.65,1.89,3.65s1.89-1.38,1.89-5.42c0-5.79,1.63-8.44,5.16-8.44,1.89,0,3.91-2.52,4.16-5.42a3.75,3.75,0,0,1,1.64-1.89c3.53-2.26,11.72-9.57,11.72-10.58a6.34,6.34,0,0,1,1.89-3,10.43,10.43,0,0,0,1.89-5.93,31.37,31.37,0,0,1,.75-6.67c.51-2,0-2.9-1.89-3.4-1.51-.38-3-.13-3.4.5a.69.69,0,0,0,.63,1.13c.76,0,1.39.89,1.39,2s-.63,1.51-1.39,1c-1-.51-1.13.38-.5,3.27.63,2.65.5,3.78-.38,3.28s-1.64.88-2.14,3c-.89,3.78-3,5.29-3.28,2.14,0-.75-.5-.37-1.13,1-1,2.27-1.14,2.14-1.14-.75-.25-6.56-1.64-11.09-3.27-10.46a2.1,2.1,0,0,1-2.52-.63c-.63-1.26,1.76-2,4.78-1.51.51,0,.89-.38.89-1.14s-.89-1.26-1.89-1.26a1.94,1.94,0,0,1-1.89-1.89c0-1,.63-1.89,1.26-1.89a1.2,1.2,0,0,1,1.26,1.26c0,.63,1.26,1.26,2.89,1.26,2.65-.12,2.52-.25-.63-2-4-2.14-4.15-2.65-1.63-6.05a9.88,9.88,0,0,0,1.89-4.16c0-2.77,5.54-10.46,7.56-10.46,1.63,0,1.63.13,0,1.26s-1.52,1.26.37,1.26c2.9,0,2.78,1-.63,3.91l-2.89,2.52,4.53-.38c4.16-.38,4.54-.25,3.66,2.14-.63,1.39-1.64,2.4-2.52,2.15s-1.14.25-.63,1-1.14,2-3.41,3c-3.65,1.64-3.78,1.76-1.26,1.89a18.77,18.77,0,0,1,5.42,1.38c2,1.14,2.4.89,2.52-1.51.13-2.14.38-2.27.76-.75.88,3.27,2.26,2.77,2.64-1,.13-2-.25-2.9-1.26-2.27s-1.13-.13-.38-2.77a62.9,62.9,0,0,0,1.26-10.59,68,68,0,0,1,3.28-18.27c.76-2.77,1.51-10.45,1.64-17l.12-12L163,92.1c-6.93-6.55-7.3-6.68-7.3-3.53,0,4.92-1.77,5-4.41.26-2.78-5.17-7.94-9.2-8.7-6.68-1.38,4.41-2,5-1.51,1.89.38-2.9-.13-3.78-2.65-4.79a19.58,19.58,0,0,0-5.67-1.13C130.46,78.12,130.2,78.62,131,83.28Zm5,1.77c-.76,2-3,2.64-3,.88a3,3,0,0,1,2.64-2.77C136.25,83.16,136.38,84,136,85.05Zm9.7,4.78c-2,2-3.27,0-1.26-2.39,1.14-1.39,1.89-1.51,2.14-.5A3.29,3.29,0,0,1,145.7,89.83ZM140,90c.88,2.27-3,8.32-5.42,8.32-1,0-1.38.63-.88,1.51s.38,1-.38.63c-1.38-.88-.37-7.81,1.39-10.84C136,87.57,139.28,87.82,140,90Zm8.82,5.67c-.25,1.76-1.76,9.58-3.15,17.39A142.32,142.32,0,0,1,140,134.81c-2,4.92-2.52,7.56-1.64,7.56,3.53,0,12-29.73,12.23-42.58,0-.88.5-1.39,1.13-1s2.52-.88,4.28-3c2.78-3.15,3.41-3.41,4.67-1.89,1.51,1.89.5,2.52-2.78,2a.92.92,0,0,0-1,1c0,.63,1.51,1.39,3.52,1.64s3.28,1,3.15,1.89.38,1.26,1.39.88c1.38-.5,1.51.38.63,4.79-1.39,7.56-1.39,8.31.75,5.54,1.52-2,1.89-2,1.89-.5,0,2.39-4.53,6.55-6.17,5.54a1.52,1.52,0,0,0-2.14.76c-.5.88-.5,1.26.13.75s1.76-.37,2.64.38a3.67,3.67,0,0,0,3.28.76c1-.38,1.76.63,1.76,2.39.13,2.14-.38,3-2,3-3.14,0-4.4,2.4-2,3.28,3.27,1.26,2.27,3.15-1.26,2.77-1.89-.25-3.65.38-3.91,1.14s.26,1.63,1.39,1.63c2.77,0,3.65,2.15,2,5-1.14,2.15-2.27,2.52-4.92,1.89-2.9-.63-3.65-.12-4.91,2.52-1.39,3-4,4.41-4,1.89,0-.63,1.13-3,2.39-5.29s2.14-4.53,1.76-5.29.13-.63,1.26.38c1.89,1.38,2.15,1.38,2.15-.25,0-1-1-3.15-2.27-4.79l-2.4-2.77-2.64,8.82a83.28,83.28,0,0,0-2.77,10.45c0,.76-1.77,5.67-3.91,11-3.28,7.81-4.28,9.07-5.29,7.3-1.14-2.14-.63-10.83,1-14.74.5-1.38.25-2-1.14-1.76a5.11,5.11,0,0,0-2.77,1.13c-2.39,2.27-3.15.51-.88-2,3.9-4.16,5.92-17.77,4.91-32.76-.75-11.34-.5-12.85,1.89-16.76C143.94,90.21,150.24,89,148.85,95.63ZM146,156.86c-1.89,3.78-3.52,6.68-3.78,6.43-.5-.5,3.41-9.83,4.92-11.84C149.61,148.42,149.23,150.06,146,156.86Z"/><path class="cls-3" d="M152.13,112.51c0,4.29-.13,8.07-.25,8.45-1.14,3.4-.63,5,1.51,5.79,2.77.88,7.18-2.52,5.54-4.16-.5-.5-1.38-.12-2.14.89q-1.32,2.07-.38-1.89c2-9.71,2-10.71.51-10.71-1,0-1.26,1.13-.63,3.4.63,2.9.5,3.15-1.26,1.64-1.39-1.14-1.77-2.9-1.39-5.8.38-2.27.25-4.41-.38-4.79S152.25,108.23,152.13,112.51Z"/><path class="cls-3" d="M108.53,89c-1.89,5.29-3.15,9.83-2.89,10.21.63.63,5.16-10.84,6.67-16.63C114,76.1,111.81,79.63,108.53,89Z"/><path class="cls-3" d="M160.07,80.64c-1.39.63-1.77,1.13-.89,1.13a1.39,1.39,0,0,1,1.26,1.51,1.93,1.93,0,0,0,1.39,2.14c1.26.38,1.64-.12,1.13-2-.37-1.51-.12-2.9.76-3.28s.88-.5.12-.63A13.08,13.08,0,0,0,160.07,80.64Z"/><path class="cls-3" d="M178.21,84c-1.64,1.89-1.51,1.89,1.13.5,2.27-1.26,2.77-1.13,2.77.51,0,1,1.14,1.89,2.65,1.89s2.27.5,1.64,1.51-.38,1,.75.38,1.26-.26.76,1.76c-.38,1.39-1.13,3.91-1.51,5.29-.51,1.77-.25,2.4.63,1.89s1.38.25,1.38,2.27c0,1.76-.5,3.53-1.26,3.91a2.94,2.94,0,0,0-1.26,2.26c0,.76.89.13,2-1.38a12.11,12.11,0,0,0,1.76-6.3c-.5-6.55-.12-7.31,2-4.29,1,1.52,1.64,3.28,1.26,3.78a3.16,3.16,0,0,0,.63,2.78c.76,1.38,1.13.63,1.13-2.65,0-2.77-.88-5.29-2-6.3a11.05,11.05,0,0,1-3-4.41c-.88-2.14-1.76-2.65-3.9-2.14s-2.65.38-2-1.26C184.89,81.14,180.48,81.14,178.21,84Z"/><path class="cls-3" d="M168.25,85.17a5.54,5.54,0,0,0,1.77,2.4c2.14,2.14,3.78.88,1.89-1.52C170.4,84.42,168.25,83.79,168.25,85.17Z"/><path class="cls-3" d="M69.85,92a13.16,13.16,0,0,1-2.14,5.79c-.76,1.51-1,3-.63,3.53s.25.76-.5.76-1.14,1.89-1.14,4a30.5,30.5,0,0,1-.88,7.68c-.88,3.15-.76,3.28,1.39,2,1.38-.88,2.39-3,2.52-5.42.37-9.83.88-13.1,1.76-12.6.5.38,1-1.13,1-3.15C71.24,91,70.23,89.08,69.85,92Z"/><path class="cls-3" d="M74.77,93.61A2.86,2.86,0,0,1,75,97a9.11,9.11,0,0,0-1.26,4.66,8.46,8.46,0,0,1-2.4,5.29c-1.38,1.39-1.89,3-1.38,3.91,1.13,1.89,6.8-7.19,8.57-14.24C79.81,92.1,79.68,92,76.66,92,74.14,92,73.76,92.35,74.77,93.61Z"/><path class="cls-3" d="M231.25,95c0,2,.63,3.28,1.89,3.28A1.83,1.83,0,0,0,235,96.51a5.55,5.55,0,0,0-1.89-3.27C231.5,91.85,231.25,92.23,231.25,95Z"/><path class="cls-3" d="M46,95.38c0,2.52,4.91,11.09,5.8,10.2.63-.75-4.16-12.34-5.17-12.34C46.29,93.24,46,94.24,46,95.38Z"/><path class="cls-3" d="M88,98.4c-5.3,2.65-8.82,5.67-7.69,6.81.38.37,2.65-.89,5-2.78s5.54-4.15,6.8-5C95.93,95,93.79,95.5,88,98.4Z"/><path class="cls-3" d="M182.24,99.54a26.08,26.08,0,0,1-3.28,8.69c-4.15,7.31-4.28,9.7-.12,6.93,1.76-1,2.77-2.77,2.52-3.65s.25-3.41,1.51-5.55c1.76-3,1.89-4.28.76-6.68l-1.39-2.89Z"/><path class="cls-3" d="M53.6,100.67c1.26,2.65,3.78,4.66,3.78,3.28,0-1.77-2.65-5.67-3.91-5.67C52.72,98.28,52.72,99.16,53.6,100.67Z"/><path class="cls-3" d="M103.37,102.81c-.51,1.26-1.39,3.4-2,4.54-.63,1.38-.63,2.27,0,2.27,1.26,0,4.29-7.69,3.28-8.57C104.38,100.67,103.75,101.55,103.37,102.81Z"/><path class="cls-3" d="M220.54,102.06c-.63,1-1.89,3.27-2.9,5l-1.89,3.15,3.41-3.28c2-1.89,3.27-4.16,3-5C221.8,100.67,221.42,100.67,220.54,102.06Z"/><path class="cls-3" d="M212,102.94c-1.39,2.14-1.39,8.44-.13,8.82.75.25,1.38-1.64,1.51-4.66C213.61,102.18,213.11,101.05,212,102.94Z"/><path class="cls-3" d="M59.9,105.08a2.94,2.94,0,0,0,2,2.52,1.52,1.52,0,0,1,1,2.27c-.63,1.26-.5,1.26.76.12s1-1.89-1.13-4C60.66,104.07,59.9,103.82,59.9,105.08Z"/><path class="cls-3" d="M242.34,104.2c-.25.63.76,3.27,2.14,6.17,2.14,4.16,2.9,4.79,4.29,3.4s1.13-1.76-.38-2.39a3.11,3.11,0,0,1-2-2.65C246.37,106.59,243,102.81,242.34,104.2Z"/><path class="cls-3" d="M50.07,110.88a31,31,0,0,0,4.16,3.78,7.54,7.54,0,0,0,1-2.52c.5-2.15.25-2.52-1.77-1.89-1.76.63-2.14.37-1.63-1.14s0-2-2.4-2H46.29Z"/><path class="cls-3" d="M189.67,111.38c0,1.64-.63,2.14-2.52,1.64-1.38-.38-2.52-.13-2.52.5,0,1.14,1.89,1.64,5,1.14,2.78-.38,2.9-.76,1.39-3.41C189.8,109.11,189.8,109.11,189.67,111.38Z"/><path class="cls-3" d="M196,113c0,1.89,5.17,4.28,7.69,3.53,2.9-.89,2-3-1.13-2.9a13.14,13.14,0,0,1-4.29-.88C197,112.26,196,112.39,196,113Z"/><path class="cls-3" d="M32.18,117.81A5.44,5.44,0,0,0,35,119.7c.76,0,.63-.89-.25-1.89a5.38,5.38,0,0,0-2.77-1.89C31.17,115.92,31.3,116.8,32.18,117.81Z"/><path class="cls-3" d="M236.42,119.7a8.38,8.38,0,0,1-7.18,2c-4.79-.63-4.79,1.14,0,2a10.32,10.32,0,0,0,6.67-1.64c7.44-4.91,10.08-2.65,20.54,18.39,4.54,9,8.57,16.51,9.2,16.76a2.74,2.74,0,0,1,.88,2.27c0,1.39,3.91,10.71,7.69,18.39a16.18,16.18,0,0,1,1.13,6c0,4.29-4.79,8.19-8.82,7.18-1.39-.37-2.27-.12-1.89.51,2,3-18.14,9.32-33,10.33a1.86,1.86,0,0,0-1.64,2c0,1.51-.25,1.63-1.13.37s-2.27-1.38-7.18-.12c-7.56,1.76-13.11,3.9-13.11,5.16,0,.63-.63,1-1.38,1a.69.69,0,0,1-.63-1.13c.75-1.14-5.29,0-9.58,1.76-1.89.76-2,1.14-.38,2.65,2,2.14,7.94,1,18.4-3.28a42.14,42.14,0,0,1,10.08-2.9c7.43-1,20.41-3.4,25.7-4.78,2.77-.76,6.18-1.52,7.56-1.77s2.77-.5,3.15-.5-.12-.63-1.13-1.26.75-2,6.3-4.16c11.46-4.28,12.6-6.93,8.82-18.77-1.64-5-8.45-19.91-15.12-33.14-9.07-18-12.73-23.94-14.24-23.69a3.21,3.21,0,0,1-2.9-1C242.09,116.55,239.82,116.92,236.42,119.7Z"/><path class="cls-3" d="M51.08,119.7c-1.13.75-1.26,1.26-.38,1.26a12.65,12.65,0,0,1,3.4.75c1.52.63,1.89.25,1.26-1.26C54.48,118.18,53.73,117.93,51.08,119.7Z"/><path class="cls-3" d="M32.18,121.46c0,.38,2.77,2,6,3.65,5,2.52,6.3,2.77,7.56,1.26s1.13-1.64-.76-1.64a24.34,24.34,0,0,1-6.93-1.88C33.31,120.83,32.18,120.58,32.18,121.46Z"/><path class="cls-3" d="M171.78,129.14c.25,1.77.76,3.15,1,3.15s.5-1.38.5-3.15-.5-3.15-1.13-3.15S171.4,127.38,171.78,129.14Z"/><path class="cls-3" d="M190.43,129.65c-1.39.5-1.89,1.26-1.26,1.64s2.27,0,3.65-1C195.34,128.39,194.34,128.14,190.43,129.65Z"/><path class="cls-3" d="M37.85,132.8c4.54,3.78,10.58,4.41,10.33,1,0-1.52-1.26-2.15-3.9-2.27a39,39,0,0,1-7.06-1.14C34.2,129.52,34.2,129.65,37.85,132.8Z"/><path class="cls-3" d="M75.4,130.53c.5.5-.26,2.14-1.64,3.65-2,2.15-2.14,2.78-.63,2.78,1,0,1.89-.51,1.89-1a6.51,6.51,0,0,1,1.89-2.77c1.64-1.64,1.51-2-.25-2.78C75.4,130,74.89,130,75.4,130.53Z"/><path class="cls-3" d="M217.27,132.92c-.63,4.92,1.76,7.94,4.28,5.8a4.22,4.22,0,0,1,3.53-.76c1,.38,5,7.69,8.94,16.13,5.17,11,7.31,14.37,7.31,11.85,0-3.41-3.27-10.71-11.09-24.7-2.14-3.78-3.52-7.43-3.27-8.19s-1.39-1.39-4.54-1.39C219.66,131.54,217.27,132.17,217.27,132.92Z"/><path class="cls-3" d="M81.19,134.06c1,1.26,1.14,2,.13,2.64-.63.38-1.26.13-1.26-.75s-.38-1.26-.76-.76a1.9,1.9,0,0,0,.13,2.14c.63,1,1.38,1,2.64-.12,2.27-1.89,2.27-3.15-.25-4.16C80.06,132.42,79.93,132.55,81.19,134.06Z"/><path class="cls-3" d="M31.55,137.46c-1.64.63-1.89,1-.63,1,1.64.12,1.64.25,0,1.51-1.39,1-.76,1.13,2.77.5,5.8-.88,7.56,1.39,3.4,4.67-2.52,1.89-2.64,2.14-.5,1.51a16.27,16.27,0,0,0,3.91-2c3.65-2.77,12.72,5.55,11.21,10.33-.76,2.4-.63,2.4,2.9.38l3.78-2.14-4-3.53c-2.15-1.89-4.29-3.53-4.79-3.53s-1-.88-1-2-.5-1.51-1.26-1.14-1.26.13-1.26-.5a1.55,1.55,0,0,0-1.64-1.39c-.88,0-3-1-4.66-2.14C36,136.33,34.83,136.07,31.55,137.46Z"/><path class="cls-3" d="M47.3,138.59c-1,.63-1.39,1.52-.88,2s1.89,0,3-1.13C51.71,137.21,50.45,136.58,47.3,138.59Z"/><path class="cls-3" d="M85.1,141a3.46,3.46,0,0,0,2.52,3c1.64.38,2.52,0,2.52-1.26a1.21,1.21,0,0,0-1.77-1.26c-1.26.51-1.63.13-1.13-1.13.38-.88,0-1.77-.76-1.77S85.1,139.6,85.1,141Z"/><path class="cls-3" d="M24.37,147.54c-1.39,4.28-1.64,6.17-.63,5.8,1.26-.38,3.9-10.84,3-11.85C26.51,141.37,25.38,144,24.37,147.54Z"/><path class="cls-3" d="M78,142.5a2.64,2.64,0,0,0,.63,2.77c1.14,1.14,1.26.88.63-.88s-.5-2.14.51-1.51,1.51.25,1.51-.38C81.32,140.74,79.18,140.74,78,142.5Z"/><path class="cls-3" d="M177.58,143.51c0,1.38.5,2.14,1,1.89s1.38.25,1.76,1.26c.76,2,3,1.51,3-.63,0-.76-.63-.88-1.38-.51s-1.64-.25-2-1.76C179.09,140.48,177.58,140.36,177.58,143.51Z"/><path class="cls-3" d="M102.61,151.57c-2.52,7.56-3.53,9.2-6,9.45a17.13,17.13,0,0,0-5.67,2.14c-4,2.52-8.94,1.64-8.82-1.51.13-1.89-.5-2.39-2.26-1.89a5.39,5.39,0,0,0-3,1.77c-.38.63-1.38.63-2.39-.26a4.15,4.15,0,0,0-3.66-.5c-1.89.76-1.89,1,.13,2.52s1.89,1.64.38,1.76c-1.77,0-5.17,4-4.92,5.8,0,.5-1.26,1.76-2.89,2.9a7.86,7.86,0,0,0-3,3.52,38.54,38.54,0,0,0-.25,4.16c-.12,1.51-.88,2.14-2,1.77a2.24,2.24,0,0,0-2.65.63c-.38.75-.38,1.38.25,1.38s1.14,3.15,1.26,7.06l.25,7.18-4-4c-2.27-2.14-4.91-3.91-5.92-3.91-1.39-.12-1.26-.63.5-1.89,2.78-2,2.78-2-2.14-4.16-2-.88-3.27-1-2.77-.25s-.38,1.26-1.76,1.26-2.65.51-2.65,1.26c0,1.64,2,1.64,5,0,1.39-.75,2.65-.75,3-.12s-.25,1.51-1.51,2c-1.89.76-1.89,1,.88,3.28,1.64,1.26,3.91,2.39,5,2.39,1.77,0,1.77.25.13,1.26s-1.64,1.26,0,1.39a11.61,11.61,0,0,0,2.9,0c.5,0,.88.5.88,1.26s1.13,1.13,2.52.75,2.9-.12,3.28.51a1.42,1.42,0,0,0,1.89.5c1.88-1.26,1.25,1.51-.76,3.15-1,.88-1.51,2-1.13,2.65s1.76-.13,3.14-1.64,2.27-2.27,1.89-1.51c-1.13,2.14,5.67,3.53,7.06,1.51,1-1.39,1.39-1.26,1.89.13.76,1.76,5.29-6.43,5.42-9.71,0-1.76,2.39-2,5-.25,1.64,1,1.38,2.27-2,8.44-2.14,4-4.53,7.19-5.29,7.06s-1.13.5-.63,1.64-.25,2.14-2,2.64c-2.39.63-2.64,2.9-.25,2.9,1.26,0,9-11.59,11.22-16.76.88-1.89,2-3.27,2.64-2.77a20.32,20.32,0,0,0,5.17,1.14c3.65.37,6.17,2.39,6.3,4.78a1.15,1.15,0,0,1-1.26,1c-.76,0-1.14.63-1,1.51s-1.26,1.77-3.28,2.15c-4.91,1-5.41,3-1.26,5.79,3.53,2.27,5.3,1.51,6-2.64a74,74,0,0,1,3.15-8.45,65.82,65.82,0,0,0,2.65-6.55,18.33,18.33,0,0,0-4-1C85.35,193.53,78.8,190.25,78.8,185c0-2.14.63-3.4,1.64-3.15s1.38-.88,1.13-2.52a10.38,10.38,0,0,1,1-5.42c.75-1.38,1-2.52.63-2.52-1,0-8.19,15.25-8.19,17.26a1.85,1.85,0,0,0,2,1.64c1.14,0,1.77.38,1.52.88s-1.26,3.15-2.15,5.67-2.64,5-3.65,5.42-4.54-1.38-7.94-3.9c-5-3.66-6-5-5.41-7.31,1.51-4.92,9.32-19,12.47-22.43l3.15-3.4,5.67,2.52,5.54,2.52,6.55-3.4a49.37,49.37,0,0,1,9.58-3.66c3.15-.25,6-3.4,7.06-7.3.88-2.9-.26-2.78-2.9.37-3.28,3.78-4.16.26-1.64-6.93,1-3.15,1.64-6,1.39-6.3S104.38,146.53,102.61,151.57Z"/><path class="cls-3" d="M13.41,146.41c-.13,3.52,2.52,6.42,3.4,3.65.38-1.13,1-1.13,2.52.13,1.89,1.51,2,1.38.5-.51a3.67,3.67,0,0,1-.75-3.78c.63-1.26.5-1.38-.89-.12-2.26,2.26-3.4,2-4-.63C13.79,143.76,13.53,144.26,13.41,146.41Z"/><path class="cls-3" d="M71.24,146.78c0,1.77.25,3.15.5,3.15s.76-1.38,1-3.15.13-3.15-.38-3.15S71.24,145,71.24,146.78Z"/><path class="cls-3" d="M110.42,150.19c.13,2.26.26,2.39.76.63.25-1.14,1.13-1.89,1.76-1.52s1.14.13,1.14-.5-.88-1.39-1.89-1.39S110.3,148.55,110.42,150.19Z"/><path class="cls-3" d="M39.74,152.58c-2,3.78-1,3.91,1.64.38,1.26-1.64,1.64-3,1-3S40.5,151.07,39.74,152.58Z"/><path class="cls-3" d="M61.79,152.08c-1.76,1.38-2,2.14-.88,2.52A2.91,2.91,0,0,1,62.42,157c0,1,.76,1.39,2,.88s1.52-1.13.63-2a5.54,5.54,0,0,1-1.38-3.41c0-1.63.12-1.63,1.26,0,.75,1.14,1.26,1.26,1.26.38C66.2,150.31,64.43,150.06,61.79,152.08Z"/><path class="cls-3" d="M123.53,151.19c-1.39.63-2.15,1.14-1.64,1.14s1.64.5,2.64.88a2,2,0,0,0,2.52-1.26C127.94,149.68,127.31,149.56,123.53,151.19Z"/><path class="cls-3" d="M179.85,153c.12,1.89,1,3.27,1.76,3.27s1.26-1,.88-2.52C181.48,149.81,179.59,149.3,179.85,153Z"/><path class="cls-3" d="M113.2,156.11l-4,4.79,3.41,1.51c2.77,1.26,3.52,1.26,4.78-.38s1.64-1.89,3-.13c.88,1,3.27,1.89,5.41,1.89,3,0,3.53-.37,2.4-1.51a6.89,6.89,0,0,1-1.51-4.41c0-2.9-2.9-4-4.41-1.64-.38.63-.13,1.26.75,1.26,3.66,0-.5,1.64-4.53,1.77-4.79.12-5.92-1.14-1.89-2.14,1.38-.38,2.52-1.52,2.52-2.52C119.12,150.94,117.23,151.45,113.2,156.11Z"/><path class="cls-3" d="M24.62,155.6c-1.39,1.77-1.39,2,.13,1.64,1.13-.25,1.63.51,1.38,2.14-.38,1.89-.12,2.15.88,1.14s1.14-2.4.38-4.16C26.51,153.71,26.26,153.71,24.62,155.6Z"/><path class="cls-3" d="M151.37,154.85a1.91,1.91,0,0,0,.63,2.77c2.27,1.39,3.28,1.39,4.29-.13.37-.75,0-1.26-1.14-1.26a2.37,2.37,0,0,1-2.27-1.51C152.51,153.59,152.13,153.59,151.37,154.85Z"/><path class="cls-3" d="M42.89,161.78c-2.52,1-3.15,1.89-2.14,2.52s.75,1.64-1.26,3.27c-3.91,3.28-1.64,3.15,2.39,0,1.77-1.38,2.65-2.52,1.77-2.52a1.38,1.38,0,0,1-1.39-1.26c0-.75.76-1.26,1.76-1.26a3.56,3.56,0,0,0,2.65-1.26C47.68,159.76,47.55,159.76,42.89,161.78Z"/><path class="cls-3" d="M47.3,164.93c0,1.38-1.89,3.9-4,5.67l-4.16,3.27h3.53c1.89,0,3.4-.63,3.4-1.38a.69.69,0,0,1,1.13-.63c.63.38,1.52-.13,1.89-1.26,1.14-3,.89-6.55-.5-7.44C47.93,162.79,47.3,163.54,47.3,164.93Z"/><path class="cls-3" d="M242.72,164.55a70.77,70.77,0,0,0,4.28,6.3c2.9,4,5,5.54,9.2,6.42,2.9.76,5.29,1.14,5.29.89s-2.14-1.52-4.91-2.9-5.17-3.4-5.55-4.28-2.52-3.15-4.78-4.67S242.47,163.92,242.72,164.55Z"/><path class="cls-3" d="M104.5,167.83c-1.26,1.89,0,2.26,4,1.13l3.66-1-3.53-.63C106.77,166.94,104.88,167.2,104.5,167.83Z"/><path class="cls-3" d="M116.85,167.45c-1.14.63,0,1.26,3.53,1.89,3.78.63,5.41,1.51,5.92,3.27.38,1.39,1.26,2.14,2.14,1.64s.88-.25.38.38-4.29,1.13-8.19,1.26c-15,.25-17.51.63-14.62,1.76,1.52.63,3.15,1.64,3.53,2.4s1.89.88,3.91.12a17.26,17.26,0,0,1,7.3-.38c3.41.51,4.92,0,7.69-2.52s2.9-3.27,1.39-3.9a3,3,0,0,1-1.89-2.52c0-.88-1.39-2.14-3-2.52a46.87,46.87,0,0,1-4.79-1.39A3.88,3.88,0,0,0,116.85,167.45Z"/><path class="cls-3" d="M177.58,174.88c-1,2.77-2.65,3.78-8.07,5.17-6.67,1.76-6.67,2.52-.37,4.41,2.26.75,2.77.5,2.14-.89-.63-1.89,2.64-3.9,4.66-2.64a3.27,3.27,0,0,1,1.13,2.64c0,1.64.63,1.52,3.15-.88,3.28-3,3.28-6.42.13-9.7C179.22,171.73,178.59,172.11,177.58,174.88Z"/><path class="cls-3" d="M51.08,176.39c-3.15.88-3.15.88.63,1.39,2.39.38,3.65,1.13,3.4,2.27-.38,1.51,0,1.51,1.51.12C61.29,176.39,58.26,174.12,51.08,176.39Z"/><path class="cls-3" d="M139.91,178.91c-.51.76-2.4,1.39-4.16,1.26-4.16-.25-9.07,1.14-9.07,2.65s3.4,1.51,4.28.12c.38-.63,2.27-.88,4.28-.5,3.41.38,7.94-2.65,6.18-4.28C141,177.78,140.41,178.16,139.91,178.91Z"/><path class="cls-3" d="M242,181.68a98.29,98.29,0,0,1-13.23,5.55c-4.53,1.64-7,2.9-5.54,2.9,4.53.12,14.87-3.53,20.66-7.44C250.4,178.28,249.4,177.78,242,181.68Z"/><path class="cls-3" d="M39.74,182.44A1.72,1.72,0,0,1,37.85,184c-1,0-1.89.51-1.89,1.26a1.24,1.24,0,0,0,1.13,1.26c1.64,0,4.41-3.65,3.41-4.66C40.12,181.43,39.74,181.68,39.74,182.44Z"/><path class="cls-3" d="M95.18,184.08c0,.63,1.51,1.38,3.53,1.89s5.92,1.64,9.07,2.64C114.45,191,136.5,192,138.9,190a5.16,5.16,0,0,0,1.64-3.4c-.13-1.77-.26-1.77-1.77.12s-3.65,2.27-14,2.15c-8.07,0-13.61-.63-15.88-1.77C104.38,184.71,95.18,182.69,95.18,184.08Z"/><path class="cls-3" d="M187.28,184.83c-.13.89-1.64,1.64-3.53,1.64a12.29,12.29,0,0,0-5.42,1.26c-1.38.88-.75,1.26,2.52,1.26,5.3,0,8.07-1.64,7.19-3.9C187.53,183.83,187.28,183.83,187.28,184.83Z"/><path class="cls-3" d="M170.14,187.73l-3.78,1,4.16.13c2.14,0,4-.51,4-1.14s-.12-1.13-.25-1.13A41.86,41.86,0,0,1,170.14,187.73Z"/><path class="cls-3" d="M160.7,189.75c0,3.4,3.52,5.92,9.19,6.3,3.28.25,5.92,0,5.92-.63s-2.39-1.14-5.29-1.14c-4-.12-5.79-.75-7.56-3C161.7,189.62,160.7,189,160.7,189.75Z"/><path class="cls-3" d="M62.8,192.39c1.13,1.14,2.39,1.77,2.89,1.39,1.26-1.26-.75-3.53-3-3.53C60.78,190.25,60.78,190.38,62.8,192.39Z"/><path class="cls-3" d="M99.08,192c.26.25,3.41.75,6.81,1.13,4.28.5,5.29.38,3.15-.38C105.89,191.76,98.08,191.13,99.08,192Z"/><path class="cls-3" d="M204.54,192.39a20.7,20.7,0,0,0,5.67,0c1.51-.25.25-.5-2.9-.5S202.9,192.14,204.54,192.39Z"/><path class="cls-3" d="M112.19,195.29c-1.26,1.39-3,2.52-4,2.52s-1.52.51-1.14,1.14c.76,1-3.15,13.35-4.66,14.86-1.39,1.26-1,4.16.38,4.16.75,0,1.26-.88,1.26-2s.63-1.52,1.51-1,1.13,0,.76-1.77-.26-2.77.88-2.77,1.38-1.13.88-3.15c-.25-1.89,0-3.15.88-3.15s1.14-.5.76-1.26c-1.64-2.64,5.67-2.77,10.08-.12,5.16,3,8.19,3.4,8.19,1,0-1,.5-.88,1.26.38,1.13,1.64,1.26,1.64,1.26,0,0-2.9-1.64-4.41-5-4.79-4.67-.5-10.08-2.89-10.08-4.28,0-.88.5-.88,1.63-.13,2,1.77,13.86,3,15.88,1.77.88-.51-1.26-1.14-4.79-1.26a41,41,0,0,1-9.57-1.39C114.33,192.39,114.83,192.39,112.19,195.29Z"/><path class="cls-3" d="M165.1,199c-.5.88.13,1,1.52.5,1.89-.76,2-.5.63,1.13s-1.26,2.27-.13,3c1,.5,1.13.38.63-.51-1.13-1.89,1.51-1.89,6.68-.12,5.42,1.89,6.3.63,1.13-1.77C169,198.32,166,197.56,165.1,199Z"/><path class="cls-3" d="M44.78,202.47c.13,1,8.69,5.42,10.46,5.42.5,0,.88-.5.88-1.26s-.76-.88-1.64-.5-2.77-.63-4.28-2C47.43,201.59,44.78,200.84,44.78,202.47Z"/><path class="cls-3" d="M158.05,202.1c-.13.37-.25,1.26-.38,1.89a3.73,3.73,0,0,1-1,2.14c-2.14,2-.88,3.27,1.26,1.38,1.26-1.26,2.78-1.76,3.28-1.26s.88-.12.63-1.38C161.33,202.6,158.43,200.46,158.05,202.1Z"/><path class="cls-3" d="M87.49,207.89c-1.51,1.64-1.64,2.65-.5,5.42.75,1.89,1.76,3,2.27,2.65s.88-.26.88.5.88,1.51,2,1.51.76-1-1.63-3c-3.15-2.77-3.41-3.4-1.89-5.8C90.77,205.75,90.14,205.12,87.49,207.89Z"/><path class="cls-3" d="M170,206.38c1.26,2-1.77,10.46-3.4,9.58-1.14-.63-1.14-.51,0,.75,1.89,2.14,5.41-.38,5.41-3.78,0-2.39,2.4-3.78,6.68-3.78,4,0,1-2.14-4.53-3C171.28,205.62,169.51,205.75,170,206.38Z"/><path class="cls-3" d="M272.83,207.39c0,.75,1.89,2.9,4.16,5l4,3.65-3.78-4.41c-2-2.39-3.91-4.66-4-4.91S272.83,206.76,272.83,207.39Z"/><path class="cls-3" d="M44.78,211.8c0,2.64,2,5.29,3.53,4.79.75-.26.25-1.77-1.14-3.53S44.78,210.79,44.78,211.8Z"/><path class="cls-3" d="M60.91,214.07c-.51,3.52-.38,3.78,1.26,2.26a3,3,0,0,0,.5-4C61.66,210.41,61.41,210.66,60.91,214.07Z"/><path class="cls-3" d="M176.19,212.05a6.37,6.37,0,0,1,2.14,4c0,2.14.13,2.14,2.52,0s2.27-4.91-.37-4a7.09,7.09,0,0,1-4-.63C174.05,210.41,174.05,210.41,176.19,212.05Z"/><path class="cls-3" d="M187.53,212.55c-2.52,1-1.89,2.9.88,2.9,1.39,0,2.52-.88,2.52-1.89C190.93,211.67,190.18,211.42,187.53,212.55Z"/><path class="cls-3" d="M144.06,215.7c1.77,1.77,6.56,2.27,6.56.63,0-.63-1.14-.88-2.52-.5s-2.52.13-2.52-.5-.63-1.14-1.52-1.14C142.93,214.19,142.93,214.57,144.06,215.7Z"/></g></g></g></g></svg>